<svg xmlns="http://www.w3.org/2000/svg" version="1.1" xmlns:xlink="http://www.w3.org/1999/xlink" viewBox="0 0 200 200"><rect width="200" height="200" fill="url('#gradient')"></rect><defs><linearGradient id="gradient" gradientTransform="rotate(45 0.5 0.5)"><stop offset="0%" stop-color="#d11111"></stop><stop offset="100%" stop-color="#9818ce"></stop></linearGradient></defs><g><g fill="#cadba3" transform="matrix(2.2097225515769505,0,0,2.2097225515769505,7.614859130158081,115.7044531751872)" stroke="#dc0b0b" stroke-width="0.15"><path d="M8.41-3.78L8.41-3.78Q8.41-4.53 7.88-4.95Q7.34-5.37 6.01-5.82Q4.67-6.27 3.82-6.69L3.82-6.69Q1.05-8.05 1.05-10.42L1.05-10.42Q1.05-11.60 1.74-12.50Q2.43-13.41 3.69-13.91Q4.95-14.41 6.52-14.41L6.52-14.41Q8.06-14.41 9.27-13.87Q10.49-13.32 11.16-12.31Q11.84-11.30 11.84-10L11.84-10L8.42-10Q8.42-10.87 7.89-11.35Q7.35-11.83 6.45-11.83L6.45-11.83Q5.53-11.83 5.00-11.42Q4.46-11.02 4.46-10.39L4.46-10.39Q4.46-9.84 5.05-9.40Q5.63-8.96 7.11-8.48Q8.58-8.01 9.53-7.46L9.53-7.46Q11.84-6.13 11.84-3.80L11.84-3.80Q11.84-1.93 10.43-0.87Q9.02 0.20 6.57 0.20L6.57 0.20Q4.84 0.20 3.44-0.42Q2.04-1.04 1.33-2.12Q0.63-3.20 0.63-4.61L0.63-4.61L4.06-4.61Q4.06-3.47 4.65-2.92Q5.24-2.38 6.57-2.38L6.57-2.38Q7.42-2.38 7.92-2.75Q8.41-3.12 8.41-3.78ZM21.32-14.22L24.75-14.22L24.75-4.91Q24.75-3.33 24.07-2.17Q23.40-1.02 22.14-0.41Q20.88 0.20 19.16 0.20L19.16 0.20Q16.56 0.20 15.07-1.15Q13.57-2.50 13.54-4.84L13.54-4.84L13.54-14.22L16.99-14.22L16.99-4.78Q17.05-2.44 19.16-2.44L19.16-2.44Q20.22-2.44 20.77-3.03Q21.32-3.61 21.32-4.93L21.32-4.93L21.32-14.22ZM32.66 0L26.88 0L26.88-14.22L31.99-14.22Q34.74-14.22 36.17-13.21Q37.60-12.21 37.60-10.29L37.60-10.29Q37.60-9.19 37.09-8.41Q36.58-7.63 35.60-7.26L35.60-7.26Q36.71-6.96 37.30-6.16Q37.90-5.36 37.90-4.21L37.90-4.21Q37.90-2.12 36.58-1.07Q35.25-0.02 32.66 0L32.66 0ZM32.71-6.04L30.31-6.04L30.31-2.64L32.56-2.64Q33.49-2.64 33.98-3.06Q34.48-3.49 34.48-4.26L34.48-4.26Q34.48-6.04 32.71-6.04L32.71-6.04ZM30.31-11.57L30.31-8.29L32.10-8.29Q33.22-8.30 33.70-8.70Q34.18-9.10 34.18-9.88L34.18-9.88Q34.18-10.78 33.66-11.18Q33.14-11.57 31.99-11.57L31.99-11.57L30.31-11.57ZM51.67-14.22L51.67 0L48.26 0L48.26-5.94L43.21-5.94L43.21 0L39.79 0L39.79-14.22L43.21-14.22L43.21-8.57L48.26-8.57L48.26-14.22L51.67-14.22ZM62.92 0L62.09-2.66L57.39-2.66L56.57 0L52.91 0L58.13-14.22L61.35-14.22L66.60 0L62.92 0ZM59.74-10.23L58.21-5.30L61.27-5.30L59.74-10.23ZM67.64-14.22L72.14-14.22L75.31-4.33L78.48-14.22L82.99-14.22L82.99 0L79.55 0L79.55-3.32L79.88-10.12L76.45 0L74.18 0L70.73-10.13L71.06-3.32L71.06 0L67.64 0L67.64-14.22Z"></path></g></g></svg>